HIERARCHY
ROOT root
{
	OFFSET 0.000000 0.000000 0.000000
	CHANNELS 6 Xposition Yposition Zposition Zrotation Yrotation Xrotation
	JOINT lhip
	{
		OFFSET 0.058581 -0.082280 -0.017664
		CHANNELS 3 Zrotation Yrotation Xrotation
		JOINT lknee
		{
			OFFSET 0.043451 -0.386469 0.008037
			CHANNELS 3 Zrotation Yrotation Xrotation
			JOINT lankle
			{
				OFFSET -0.014790 -0.426874 -0.037428
				CHANNELS 3 Zrotation Yrotation Xrotation
				JOINT ltoe
				{
					OFFSET 0.041054 -0.060286 0.122042
					CHANNELS 3 Zrotation Yrotation Xrotation
					End Site
					{
						OFFSET 0.000000 0.000000 0.000000
					}
				}
			}
		}
	}
	JOINT rhip
	{
		OFFSET -0.060310 -0.090513 -0.013543
		CHANNELS 3 Zrotation Yrotation Xrotation
		JOINT rknee
		{
			OFFSET -0.043257 -0.383688 -0.004843
			CHANNELS 3 Zrotation Yrotation Xrotation
			JOINT rankle
			{
				OFFSET 0.019056 -0.420046 -0.034562
				CHANNELS 3 Zrotation Yrotation Xrotation
				JOINT rtoe
				{
					OFFSET -0.034840 -0.062106 0.130323
					CHANNELS 3 Zrotation Yrotation Xrotation
					End Site
					{
						OFFSET 0.000000 0.000000 0.000000
					}
				}
			}
		}
	}
	JOINT lowerback
	{
		OFFSET 0.004439 0.124404 -0.038385
		CHANNELS 3 Zrotation Yrotation Xrotation
		JOINT upperback
		{
			OFFSET 0.004488 0.137956 0.026820
			CHANNELS 3 Zrotation Yrotation Xrotation
			JOINT chest
			{
				OFFSET -0.002265 0.056032 0.002855
				CHANNELS 3 Zrotation Yrotation Xrotation
				JOINT lowerneck
				{
					OFFSET -0.013390 0.211636 -0.033468
					CHANNELS 3 Zrotation Yrotation Xrotation
					JOINT upperneck
					{
						OFFSET 0.010113 0.088937 0.050410
						CHANNELS 3 Zrotation Yrotation Xrotation
						End Site
						{
							OFFSET 0.000000 0.000000 0.000000
						}
					}
				}
				JOINT lclavicle
				{
					OFFSET 0.071702 0.114000 -0.018898
					CHANNELS 3 Zrotation Yrotation Xrotation
					JOINT lshoulder
					{
						OFFSET 0.122921 0.045205 -0.019046
						CHANNELS 3 Zrotation Yrotation Xrotation
						JOINT lelbow
						{
							OFFSET 0.255332 -0.015649 -0.022946
							CHANNELS 3 Zrotation Yrotation Xrotation
							JOINT lwrist
							{
								OFFSET 0.265709 0.012698 -0.007375
								CHANNELS 3 Zrotation Yrotation Xrotation
								End Site
								{
									OFFSET 0.000000 0.000000 0.000000
								}
							}
						}
					}
				}
				JOINT rclavicle
				{
					OFFSET -0.082954 0.112472 -0.023707
					CHANNELS 3 Zrotation Yrotation Xrotation
					JOINT rshoulder
					{
						OFFSET -0.113228 0.046853 -0.008472
						CHANNELS 3 Zrotation Yrotation Xrotation
						JOINT relbow
						{
							OFFSET -0.260127 -0.014369 -0.031269
							CHANNELS 3 Zrotation Yrotation Xrotation
							JOINT rwrist
							{
								OFFSET -0.269108 0.006794 -0.006027
								CHANNELS 3 Zrotation Yrotation Xrotation
								End Site
								{
									OFFSET 0.000000 0.000000 0.000000
								}
							}
						}
					}
				}
			}
		}
	}
}
MOTION
Frames: 6
Frame Time: 0.033333
0.241600 1.734890 0.999741 -90.894343 0.370996 88.270993 1.388626 -0.207282 -7.441920 -8.866168 -8.903906 14.715991 1.093555 8.547649 -6.179120 0.000000 -0.000000 0.000000 1.614557 -1.156981 -2.424961 6.537957 0.011154 4.521462 1.302654 -6.119136 -4.393415 0.000000 -0.000000 0.000000 -0.844287 3.043851 12.089563 1.449781 -1.874208 1.460549 1.635402 0.775204 -4.941088 3.085072 10.983569 2.003091 7.567572 15.941341 6.641599 -26.309994 -1.411344 -1.495450 -53.108683 -7.566813 11.475391 12.136384 -19.373333 0.517844 -4.400113 -5.287420 3.349447 22.132387 2.710024 1.271162 50.350346 3.284594 13.890799 -10.973808 22.331189 0.939942 7.634113 4.772933 3.699020 
0.239802 1.733347 1.000257 -90.435157 0.638277 88.305329 2.048988 -0.006145 -6.438698 -9.246768 -8.754856 12.862151 0.583013 7.939353 -5.486972 0.000000 -0.000000 0.000000 1.574809 -1.661609 -0.263297 6.707639 0.335532 0.787286 1.747703 -5.773660 -2.867821 0.000000 -0.000000 0.000000 -0.969160 3.136806 11.498058 1.351902 -1.907840 1.474105 1.770621 0.666641 -5.178976 3.286294 10.753034 2.123516 7.393503 15.163833 6.094242 -26.784426 -1.147394 -1.176226 -52.657387 -7.845175 11.056489 12.016563 -19.105185 1.442406 -4.664340 -5.352341 3.182714 22.309060 2.058393 1.184573 50.761913 3.607405 13.645713 -11.253210 22.244248 0.788376 7.326245 4.591697 2.894387 
0.239573 1.732373 1.000396 -90.060612 0.725437 88.588122 2.363499 -0.227505 -6.275860 -9.563253 -8.645130 11.866505 0.348427 7.558503 -5.126409 0.000000 -0.000000 0.000000 1.540871 -2.419973 0.027691 6.735837 0.634333 -0.263617 1.873688 -5.519429 -2.397050 0.000000 -0.000000 0.000000 -1.133706 3.305932 10.950802 1.148049 -2.000847 1.483165 1.748840 0.670191 -5.556500 3.157528 10.564126 2.220019 7.205736 14.705213 5.260625 -26.538951 -1.152549 -1.192532 -52.578096 -7.833427 11.006798 12.177284 -18.853052 1.144340 -4.579438 -5.168613 2.914223 22.095802 2.016906 1.359662 51.528035 3.715075 13.504329 -11.289795 22.181621 0.212935 7.126632 4.457307 2.028916 
0.239907 1.729919 1.000228 -90.143512 0.663076 89.005327 2.104352 -0.355135 -4.864496 -9.064932 -9.156186 8.140262 0.529415 7.789443 -4.079077 0.000000 -0.000000 0.000000 1.517787 -2.810611 -1.448084 6.460596 0.472977 1.316594 2.056897 -5.287953 -2.525221 0.000000 -0.000000 0.000000 -0.968552 3.561946 10.187956 0.739333 -1.776724 2.004100 1.280778 0.793594 -6.131927 2.683164 10.211148 1.601592 6.815335 14.127981 4.507576 -26.740342 -1.471842 -1.527683 -51.706183 -7.528812 11.087735 13.032348 -18.800396 -0.671394 -3.218941 -5.388777 3.614025 22.219655 2.495462 1.393012 51.580940 3.539149 13.872948 -11.046029 22.642222 0.218455 6.709020 4.726682 2.285244 
0.240185 1.729049 1.000149 -90.347212 0.629672 89.044552 1.793128 -0.274941 -4.103547 -8.429713 -9.402940 6.574438 0.514379 7.930769 -3.696498 0.000000 -0.000000 0.000000 1.509899 -2.506333 -1.893180 6.347472 0.257906 1.884500 2.077562 -5.321970 -2.619288 0.000000 -0.000000 0.000000 -0.887170 3.521430 10.166307 0.598679 -1.596727 2.028300 1.156405 0.912507 -6.225706 2.395837 10.230622 1.545933 6.674848 14.013894 4.087709 -26.581940 -1.529392 -1.738815 -51.744910 -7.334465 11.068530 13.350758 -18.917918 -1.473851 -3.405666 -5.531992 3.595294 22.169679 2.695737 1.419441 51.508459 3.637225 14.021738 -10.935457 22.797231 0.661693 6.927286 4.787959 2.902566 
0.240589 1.727531 1.000371 -90.858087 0.525324 88.912846 1.461272 0.549670 -2.365695 -7.600739 -10.089936 3.684301 0.123573 7.822795 -3.119962 0.000000 -0.000000 0.000000 1.262736 -1.868082 -2.325754 6.345814 -0.039590 2.736818 2.286440 -5.065670 -2.731320 0.000000 -0.000000 0.000000 -0.799569 3.210454 10.408305 0.369465 -1.187465 1.960152 0.876659 1.245548 -6.375865 1.911054 10.153468 1.467873 6.261561 14.288068 3.583018 -26.902035 -1.587779 -1.872052 -50.986974 -7.156226 10.775385 14.288051 -18.903372 -2.400378 -0.692253 -6.342849 4.505974 22.246474 3.117218 1.539100 51.075176 3.881966 14.260354 -10.565215 23.285764 1.577745 6.075326 4.960523 4.060543 
